<?xml version="1.0" encoding="iso-8859-1"?>
<!-- Generator: Adobe Illustrator 16.0.0, SVG Export Plug-In . SVG Version: 6.00 Build 0)  -->
<!DOCTYPE svg PUBLIC "-//W3C//DTD SVG 1.1//EN" "http://www.w3.org/Graphics/SVG/1.1/DTD/svg11.dtd">
<svg version="1.1" id="Capa_1" xmlns="http://www.w3.org/2000/svg" xmlns:xlink="http://www.w3.org/1999/xlink" x="0px" y="0px"
	 width="48.16px" height="48.16px" viewBox="0 0 48.16 48.16" style="enable-background:new 0 0 48.16 48.16;" xml:space="preserve"
	>
<g>
	<path d="M26.579,34.225c0,0.553-1.119,1-2.5,1s-2.5-0.447-2.5-1c0-0.555,1.119-1,2.5-1S26.579,33.67,26.579,34.225z M31.829,29.066
		c-1.287,0-2.333,1.048-2.333,2.334c0,1.285,1.047,2.332,2.333,2.332s2.333-1.047,2.333-2.332
		C34.162,30.114,33.116,29.066,31.829,29.066z M43.982,25.4h-0.939c0.05,0.347,0.093,0.688,0.126,1.021
		c1.468,1.202,2.41,3.076,2.41,5.179c0,2.938-1.849,5.436-4.389,6.267C37.934,44.12,31.379,48.16,24.11,48.16
		c-7.263,0-13.807-4.029-17.068-10.271c-2.578-0.808-4.463-3.322-4.463-6.291c0-2.134,0.974-4.033,2.478-5.231
		c0.034-0.313,0.075-0.638,0.119-0.966H4.175c-0.414,0-0.785-0.256-0.933-0.643l-2.596-6.741c-0.137-0.354-0.061-0.756,0.196-1.035
		c0.257-0.28,0.651-0.391,1.014-0.285c0.036,0.011,3.499,1,5.949,1.083c0.333-0.501,0.738-1.061,1.219-1.648
		c-0.001-0.021-0.008-0.04-0.008-0.061C9.016,7.602,10.168,0,24.079,0s15.063,7.604,15.063,16.071c0,0.015-0.005,0.027-0.005,0.042
		c0.485,0.586,0.896,1.143,1.236,1.642c2.45-0.079,5.896-1.049,5.934-1.06c0.363-0.102,0.756,0.008,1.012,0.288
		c0.256,0.279,0.331,0.68,0.195,1.034l-2.599,6.741C44.769,25.146,44.396,25.4,43.982,25.4z M38.788,26.316
		c-0.007-0.312-0.021-0.617-0.051-0.916H9.421c-0.03,0.299-0.043,0.604-0.051,0.916H38.788z M26.74,43.324l-0.473-2.122H21.92
		l-0.487,2.112c0.666-0.299,1.602-0.487,2.645-0.487C25.134,42.827,26.073,43.02,26.74,43.324z M41.579,31.6
		c0-1.396-0.969-2.522-2.187-2.558c-0.354,0.585-0.764,1.147-1.231,1.683c0.245-0.793,0.415-1.6,0.521-2.408H22.367l-1.768,4.766
		c-0.146,0.393-0.52,0.652-0.938,0.652h-5.75c-0.419,0-0.793-0.262-0.938-0.654l-1.754-4.764H9.476
		c0.106,0.81,0.276,1.615,0.521,2.408c-0.469-0.533-0.876-1.099-1.231-1.684c-1.218,0.035-2.187,1.163-2.187,2.559
		c0,1.414,0.998,2.562,2.242,2.562c0.311,0,0.605-0.072,0.874-0.201c0.312,0.91,0.719,1.774,1.193,2.598
		c2.232,0.811,5.364,2.362,6.854,4.972l0.64-2.774c0.209-0.908,1.017-1.551,1.949-1.551h7.541c0.938,0,1.749,0.65,1.952,1.564
		l0.609,2.732c1.513-2.622,4.688-4.174,6.917-4.974c0.462-0.81,0.859-1.657,1.168-2.548c0.254,0.113,0.527,0.181,0.817,0.181
		C40.581,34.16,41.579,33.014,41.579,31.6z"/>
</g>
</svg>
