<?xml version="1.0" encoding="iso-8859-1"?>
<!-- Generator: Adobe Illustrator 18.0.0, SVG Export Plug-In . SVG Version: 6.00 Build 0)  -->
<!DOCTYPE svg PUBLIC "-//W3C//DTD SVG 1.1//EN" "http://www.w3.org/Graphics/SVG/1.1/DTD/svg11.dtd">
<svg xmlns="http://www.w3.org/2000/svg" xmlns:xlink="http://www.w3.org/1999/xlink" version="1.1" id="Capa_1" x="0px" y="0px" viewBox="0 0 296.999 296.999" style="enable-background:new 0 0 296.999 296.999;" xml:space="preserve" width="512px" height="512px">
<g>
	<path d="M172.882,108.511c-3.907-3.904-10.236-3.904-14.142,0.002l-10.24,10.242l-10.24-10.242   c-3.905-3.904-10.236-3.904-14.142-0.002c-3.905,3.904-3.906,10.236-0.002,14.143l10.243,10.244l-10.243,10.248   c-3.904,3.906-3.903,10.236,0.002,14.143c1.953,1.951,4.512,2.928,7.07,2.928c2.559,0,5.118-0.977,7.071-2.93l10.24-10.244   l10.24,10.244c1.953,1.953,4.513,2.93,7.071,2.93c2.559,0,5.118-0.977,7.07-2.928c3.905-3.906,3.906-10.236,0.002-14.143   l-10.244-10.248l10.244-10.244C176.788,118.748,176.787,112.416,172.882,108.511z" fill="#FFFFFF"/>
	<path d="M290.161,158.048c-24.439-8.148-39.881-32.693-54.814-56.43c-14.541-23.111-28.275-44.941-50.331-53.65   c-2.555-1.006-5.41-0.922-7.899,0.24c-2.489,1.16-4.391,3.295-5.259,5.898c-3.358,10.072-12.744,16.84-23.357,16.84   c-10.612,0-19.999-6.768-23.357-16.84c-0.868-2.605-2.771-4.738-5.259-5.898c-2.488-1.16-5.346-1.246-7.899-0.24   c-22.056,8.709-35.79,30.539-50.331,53.65c-14.934,23.736-30.375,48.281-54.814,56.43c-5.238,1.746-8.068,7.408-6.323,12.646   c0.8,2.402,20.067,58.793,61.426,58.793c8.586,0,15.532-1.824,21.47-4.543v14.783c0,3.861,2.223,7.377,5.711,9.033   c3.489,1.658,7.616,1.154,10.609-1.283c10.339-8.434,22.058-17.99,48.769-17.99c26.708,0,38.429,9.557,48.769,17.99   c1.819,1.484,4.059,2.25,6.321,2.25c1.456,0,2.921-0.318,4.288-0.967c3.487-1.656,5.71-5.172,5.71-9.033v-14.783   c5.938,2.719,12.884,4.543,21.471,4.543c41.358,0,60.626-56.391,61.426-58.793C298.229,165.457,295.398,159.795,290.161,158.048z    M148.5,209.488c-20.681,0-34.676,4.857-45.09,10.803v-9.051c10.579-8.598,21.25-16.389,45.09-16.389   c23.839,0,34.51,7.791,45.089,16.389v9.051C183.175,214.345,169.18,209.488,148.5,209.488z M235.058,209.488   c-11.996,0-18.389-5.221-27.235-12.447c-12.104-9.887-27.166-22.189-59.323-22.189c-32.158,0-47.222,12.305-59.324,22.189   c-8.847,7.227-15.238,12.447-27.234,12.447c-18.271,0-32.196-21.719-38.987-36.516c25.387-12.635,41.354-38.018,55.627-60.703   c10.521-16.723,20.561-32.682,32.723-41.287c8.121,12.27,21.961,19.965,37.196,19.965s29.076-7.693,37.197-19.965   c12.16,8.607,22.2,24.564,32.722,41.287c14.273,22.686,30.239,48.066,55.626,60.703   C267.25,187.775,253.327,209.488,235.058,209.488z" fill="#FFFFFF"/>
</g>
</svg>
